<svg width="44" height="44" viewBox="0 0 44 44" fill="none" xmlns="http://www.w3.org/2000/svg">
<path fill-rule="evenodd" clip-rule="evenodd" d="M4.40002 8.79999C4.01103 8.79999 3.63798 8.95451 3.36293 9.22956C3.08787 9.50462 2.93335 9.87767 2.93335 10.2667C2.93335 10.6556 3.08787 11.0287 3.36293 11.3037C3.63798 11.5788 4.01103 11.7333 4.40002 11.7333H39.6C39.989 11.7333 40.3621 11.5788 40.6371 11.3037C40.9122 11.0287 41.0667 10.6556 41.0667 10.2667C41.0667 9.87767 40.9122 9.50462 40.6371 9.22956C40.3621 8.95451 39.989 8.79999 39.6 8.79999H4.40002ZM2.93335 22C2.93335 21.611 3.08787 21.238 3.36293 20.9629C3.63798 20.6878 4.01103 20.5333 4.40002 20.5333H39.6C39.989 20.5333 40.3621 20.6878 40.6371 20.9629C40.9122 21.238 41.0667 21.611 41.0667 22C41.0667 22.389 40.9122 22.762 40.6371 23.0371C40.3621 23.3121 39.989 23.4667 39.6 23.4667H4.40002C4.01103 23.4667 3.63798 23.3121 3.36293 23.0371C3.08787 22.762 2.93335 22.389 2.93335 22ZM2.93335 33.7333C2.93335 33.3443 3.08787 32.9713 3.36293 32.6962C3.63798 32.4212 4.01103 32.2667 4.40002 32.2667H39.6C39.989 32.2667 40.3621 32.4212 40.6371 32.6962C40.9122 32.9713 41.0667 33.3443 41.0667 33.7333C41.0667 34.1223 40.9122 34.4954 40.6371 34.7704C40.3621 35.0455 39.989 35.2 39.6 35.2H4.40002C4.01103 35.2 3.63798 35.0455 3.36293 34.7704C3.08787 34.4954 2.93335 34.1223 2.93335 33.7333Z" fill="#212121"/>
</svg>
